<svg width="64" height="64" viewBox="0 0 64 64" fill="none" xmlns="http://www.w3.org/2000/svg">
  <circle cx="32" cy="32" r="30" fill="#0a0a10" stroke="#00ddff" stroke-width="4"/>
  <path d="M32.16 49.92C37.84 49.92 42.68 47.96 46.68 44.04L52.84 50.2L55.72 47.32L49.56 41.16C52.28 37.8 54 33.6 54 29C54 18.52 44.24 10 32.16 10C20.08 10 10.32 18.52 10.32 29C10.32 39.48 20.08 49.92 32.16 49.92ZM32.16 15.68C41.2 15.68 48.32 21.6 48.32 29C48.32 36.4 41.2 44.24 32.16 44.24C23.12 44.24 16 36.4 16 29C16 21.6 23.12 15.68 32.16 15.68Z" fill="#00ddff"/>
  <rect x="38" y="40" width="6" height="12" rx="3" transform="rotate(45 38 40)" fill="#ff00c8"/>
</svg>
